<svg xmlns="http://www.w3.org/2000/svg" width="60" height="60" viewBox="0 0 60 60" fill="none" class="">
                                <path d="M19.0208 13H40.9792C44.3083 13 47 15.6917 47 19.0208V40.1292C47 43.4583 44.3083 46.15 40.9792 46.15H19.0208C15.6917 46.15 13 43.4583 13 40.1292V19.0208C13 15.6917 15.6917 13 19.0208 13Z" fill="#330000"></path>
                                <path d="M29.4333 32.8334H24.1633L23.0866 36.1625C23.0583 36.29 22.945 36.375 22.8175 36.3609H20.1541C19.9983 36.3609 19.9558 36.2759 19.9983 36.1059L24.56 22.9734C24.6025 22.8317 24.645 22.6759 24.7016 22.5059C24.7583 22.2084 24.7866 21.8967 24.7866 21.585C24.7725 21.5142 24.8291 21.4434 24.9 21.4292H28.5691C28.6825 21.4292 28.7391 21.4717 28.7533 21.5425L33.9241 36.1342C33.9666 36.29 33.9241 36.3609 33.7825 36.3609H30.8216C30.7225 36.375 30.6233 36.3042 30.595 36.205L29.4333 32.8334ZM24.985 29.9575H28.5833C28.4983 29.66 28.385 29.3059 28.2575 28.9375C28.13 28.555 28.0025 28.1442 27.875 27.7192C27.7333 27.28 27.6058 26.855 27.4641 26.4159C27.3225 25.9767 27.195 25.5659 27.0816 25.155C26.9683 24.7584 26.8691 24.39 26.77 24.05H26.7416C26.6141 24.6592 26.4583 25.2684 26.26 25.8775C26.0475 26.5575 25.835 27.2659 25.6083 27.9742C25.41 28.6967 25.1975 29.3625 24.985 29.9575ZM37.0833 23.9084C36.6158 23.9225 36.1625 23.7384 35.8225 23.4125C35.4966 23.0584 35.3266 22.5909 35.3408 22.1092C35.3266 21.6275 35.5108 21.1742 35.8508 20.8484C36.1908 20.5225 36.6441 20.3525 37.1116 20.3525C37.6641 20.3525 38.0891 20.5225 38.4008 20.8484C38.7125 21.1884 38.8825 21.6417 38.8683 22.1092C38.8825 22.5909 38.7125 23.0584 38.3725 23.4125C38.0466 23.7525 37.565 23.9367 37.0833 23.9084ZM35.4966 36.205V25.2967C35.4966 25.155 35.5533 25.0984 35.6808 25.0984H38.4858C38.6133 25.0984 38.67 25.1692 38.67 25.2967V36.205C38.67 36.3609 38.6133 36.4317 38.4858 36.4317H35.7091C35.5675 36.4317 35.4966 36.3467 35.4966 36.205Z" fill="#FF9A00"></path>
                            </svg>