<svg xmlns="http://www.w3.org/2000/svg" width="60" height="60" viewBox="0 0 60 60" fill="none" class="">
                                <path d="M18.2412 34.7397L16.4626 35.3896L16.3679 40.6802L22.5246 38.4312C20.4111 37.7234 18.8698 36.476 18.2412 34.7397Z" fill="#FDBD39"></path>
                                <path d="M19.1722 29.144L13 31.3987L16.4626 35.3911L18.2412 34.7412C17.6139 33.0107 18.001 31.0569 19.1722 29.144Z" fill="#F69833"></path>
                                <path d="M29.5571 21.5081C21.6981 24.3787 16.6307 30.3037 18.2412 34.7396L46.7005 24.3434C45.09 19.9075 37.4161 18.6374 29.5571 21.5081Z" fill="#FECF33"></path>
                                <path d="M35.3832 37.5765C43.2421 34.7059 48.318 28.8078 46.6991 24.345L18.2398 34.7398C19.8588 39.204 27.5242 40.4472 35.3832 37.5765Z" fill="#EE6723"></path>
                                <path d="M46.6991 24.3435L18.2412 34.7397C18.7978 36.2768 20.924 37.034 23.9048 37.034C26.8122 37.034 30.5333 36.3149 34.4126 34.8979C42.2716 32.0273 47.7996 27.378 46.6991 24.3435Z" fill="#F69833"></path>
                                <path d="M41.0355 22.0508C38.1295 22.0508 34.407 22.7699 30.5276 24.1868C22.6687 27.0575 17.1407 31.7053 18.2412 34.7398L46.7005 24.3436C46.1424 22.8066 44.0177 22.0508 41.0355 22.0508Z" fill="#FDBD39"></path>
                                <path d="M39.4631 40.9614C38.6254 40.9614 37.3907 40.2056 35.7915 38.7137C33.8998 36.9492 31.7341 34.364 29.6899 31.4354C27.6471 28.5068 25.9688 25.5797 24.9629 23.1907C23.8681 20.5885 23.7113 18.9893 24.4982 18.4355C24.6804 18.3112 24.8965 18.2476 25.1169 18.2533C25.7569 18.2533 27.0057 18.7294 29.3127 21.001L29.3636 21.0505L29.3565 21.1211C29.341 21.285 29.3268 21.4489 29.3141 21.6113L29.2887 21.932L29.0627 21.7046C26.5763 19.1998 25.4828 18.93 25.1268 18.93C25.0251 18.93 24.9446 18.9497 24.8867 18.9907C24.5448 19.2309 24.5222 20.4063 25.5845 22.928C26.572 25.2731 28.2263 28.1565 30.2423 31.0469C32.2596 33.9387 34.3929 36.4844 36.252 38.2179C38.2552 40.0869 39.158 40.2889 39.4532 40.2889C39.5549 40.2889 39.6369 40.2677 39.699 40.2239C40.0593 39.971 40.0593 38.7123 38.8754 35.9971L38.8203 35.8727L38.939 35.8078C39.0577 35.7428 39.1735 35.6792 39.2809 35.617L39.4236 35.5365L39.49 35.6863C40.3291 37.6104 41.1146 40.0558 40.0847 40.7791C39.9025 40.9034 39.6849 40.967 39.4631 40.9614Z" fill="#EE6723"></path>
                                <path d="M35.5739 37.4946L35.5626 37.6415C35.3634 40.0996 34.8407 43.055 33.476 43.1751C33.4477 43.1779 33.4195 43.1779 33.3926 43.1779C32.4659 43.1779 31.5886 41.85 30.7876 39.2322C30.0275 36.7543 29.4384 33.4287 29.129 29.8673C28.8182 26.3058 28.8225 22.928 29.1418 20.3554C29.4893 17.5526 30.1504 16.089 31.1083 16.0042C31.1365 16.0014 31.1662 16 31.1944 16C31.8669 16 32.8798 16.7615 33.9168 20.3074L33.2401 20.4374C32.8939 19.2535 32.5167 18.29 32.1424 17.626C31.7963 17.0143 31.4586 16.6767 31.1944 16.6767C31.186 16.6767 31.1775 16.6767 31.1676 16.6781C30.7523 16.7148 30.1476 17.7207 29.8114 20.4388C29.4978 22.9647 29.4935 26.2931 29.8001 29.8079C30.1066 33.3242 30.6859 36.6003 31.4318 39.033C31.7652 40.1222 32.1311 41.0207 32.4913 41.6296C32.8219 42.1919 33.1426 42.5012 33.3926 42.5012C33.4011 42.5012 33.4096 42.5012 33.4181 42.4998C33.815 42.4659 34.5638 41.4177 34.8788 37.7319L35.5739 37.4946Z" fill="#EE6723"></path>
                            </svg>