<svg xmlns="http://www.w3.org/2000/svg" width="60" height="60" viewBox="0 0 60 60" fill="none" class="">
                                <path fill-rule="evenodd" clip-rule="evenodd" d="M19.8853 25.9702L29.9986 45.7649L13 25.9702H19.8853Z" fill="#EA6C00"></path>
                                <path fill-rule="evenodd" clip-rule="evenodd" d="M40.1147 25.9702L30.0014 45.7649L47 25.9702H40.1147Z" fill="#EA6C00"></path>
                                <path fill-rule="evenodd" clip-rule="evenodd" d="M19.8849 25.9702H40.1115L29.9982 45.7649L19.8849 25.9702Z" fill="#FDAD00"></path>
                                <path fill-rule="evenodd" clip-rule="evenodd" d="M29.9982 15L20.4172 16.0128L19.8849 25.9702L29.9982 15Z" fill="#FDD231"></path>
                                <path fill-rule="evenodd" clip-rule="evenodd" d="M29.9982 15L39.5792 16.0128L40.1115 25.9702L29.9982 15Z" fill="#FDD231"></path>
                                <path fill-rule="evenodd" clip-rule="evenodd" d="M47 25.9701L39.5824 16.0127L40.1147 25.9701H47Z" fill="#FDAD00"></path>
                                <path fill-rule="evenodd" clip-rule="evenodd" d="M13 25.9701L20.4176 16.0127L19.8853 25.9701H13Z" fill="#FDAD00"></path>
                                <path fill-rule="evenodd" clip-rule="evenodd" d="M29.9982 15L19.8849 25.9702H40.1115L29.9982 15Z" fill="#FEEEB7"></path>
                            </svg>